<svg width="128" height="76" viewBox="0 0 128 76" xmlns="http://www.w3.org/2000/svg">
	<defs>
		<style>
			.imp { fill: #212529; }
			@media (prefers-color-scheme: dark) {
				.imp { fill: #dee2e6; }
			}
		</style>
	</defs>
	<path
		class="imp"
		d="M 11.676522,13.342616 H 23.434698 L 25.149431,5.5038322 H 13.391256 Z M -3.0422211e-7,68.214104 H 11.83983 l 8.492016,-40.01046 q 0.40827,-1.796388 -0.326616,-3.184506 -0.734886,-1.469772 -1.878042,-2.367966 -1.306464,-0.979848 -3.347814,-1.551426 -1.959696,-0.653232 -4.572624,-0.653232 z" />
	<path
		class="imp"
		d="m 53.401771,68.214104 8.328708,-39.19392 h 11.758176 l -8.328708,39.19392 h 11.676522 l 8.328708,-39.19392 q 0.40827,-1.796388 -0.244962,-3.26616 -0.653232,-1.469772 -1.878042,-2.367966 -1.22481,-0.979848 -3.26616,-1.551426 Q 77.816317,21.1814 75.203389,21.1814 H 39.847207 q -2.612928,0 -4.980894,0.653232 -2.286312,0.571578 -4.001046,1.551426 -1.551426,0.898194 -2.85789,2.367966 -1.22481,1.469772 -1.63308,3.26616 l -8.328708,39.19392 h 11.83983 l 8.247054,-39.19392 h 11.758176 l -8.328708,39.19392 z" />
	<path
		class="imp"
		d="m 82.225573,76.052888 h 11.83983 l 1.714734,-7.838784 h 11.676523 q 2.53127,0.163308 5.06255,-0.571578 2.61293,-0.734886 4.16435,-1.63308 1.63308,-0.979848 2.85789,-2.44962 1.22481,-1.469772 1.46977,-3.184506 l 6.61398,-31.355136 q 0.57157,-1.714734 0,-3.184506 -0.57158,-1.551426 -1.87805,-2.44962 -1.14315,-0.979848 -3.34781,-1.63308 -2.123,-0.734886 -4.89924,-0.571578 H 93.983749 Z M 104.02719,29.020184 h 11.75818 L 109.17139,60.37532 H 97.494871 Z" />
</svg>
