<svg width="128" height="128" viewBox="0 0 128 128" xmlns="http://www.w3.org/2000/svg">
	<defs>
		<style>
			.imp { fill: #212529; }
			@media (prefers-color-scheme: dark) {
				.imp { fill: #dee2e6; }
			}
		</style>
	</defs>
	<path
		class="imp"
		d="M 63.999999,12.65 A 51.351689,51.349999 0 0 0 22.802303,33.404626 c 6.568297,0.315992 12.37179,0.287617 13.668376,2.14627 2.804012,4.019516 -2.07496,17.387874 -6.457074,20.447731 -2.286299,1.59643 -9.284388,2.117069 -16.833726,0.73013 A 51.351689,51.349999 0 0 0 12.648309,64 51.351689,51.349999 0 0 0 63.999999,115.35 51.351689,51.349999 0 0 0 115.35169,64 51.351689,51.349999 0 0 0 114.83015,56.726754 c -7.55317,1.389241 -14.55644,0.869014 -16.843755,-0.728127 -4.382113,-3.059853 -9.261083,-16.428219 -6.457077,-20.447731 1.299109,-1.862268 7.122447,-1.830318 13.706492,-2.148275 A 51.351689,51.349999 0 0 0 63.999999,12.65 Z" />
	<path
		class="imp"
		d="m 117.9563,15.369432 c 0,0 15.16955,17.512411 8.22297,29.360807 -5.06765,8.643592 -21.47967,9.510707 -24.56442,7.40929 -2.820893,-1.921676 -5.961035,-10.31736 -4.156012,-12.841731 1.805015,-2.524375 17.174722,0.494588 21.762002,-5.120222 3.63997,-4.455302 -1.26454,-18.808144 -1.26454,-18.808144 z" />
	<path
		class="imp"
		d="m 10.043703,15.369432 c 0,0 -15.1695495,17.512411 -8.2229665,29.360807 5.0676421,8.643592 21.4796705,9.510707 24.5644125,7.40929 2.820894,-1.921676 5.961036,-10.31736 4.156013,-12.841731 C 28.736147,36.773423 13.366442,39.792386 8.7791609,34.177576 5.1391925,29.722274 10.043703,15.369432 10.043703,15.369432 Z" />
</svg>
